<svg width="56" height="48" viewBox="0 0 56 48" fill="none" xmlns="http://www.w3.org/2000/svg">
<rect width="56" height="48" rx="24" fill="#E8F1F5"/>
<path d="M38.1053 30.9183C38.5919 30.9186 39.0597 31.1085 39.4119 31.4487C39.764 31.789 39.9735 32.2534 39.9969 32.7459C40.0203 33.2383 39.8558 33.7211 39.5375 34.094C39.2192 34.4669 38.7715 34.7014 38.2872 34.749L38.1053 34.758H17.8947C17.4081 34.7577 16.9403 34.5678 16.5881 34.2276C16.236 33.8873 16.0265 33.4229 16.0031 32.9304C15.9797 32.4379 16.1442 31.9552 16.4625 31.5823C16.7808 31.2094 17.2285 30.9749 17.7128 30.9273L17.8947 30.9183H38.1053ZM38.1053 21.9592C38.6078 21.9592 39.0897 22.1614 39.445 22.5215C39.8004 22.8815 40 23.3698 40 23.879C40 24.3882 39.8004 24.8765 39.445 25.2365C39.0897 25.5965 38.6078 25.7988 38.1053 25.7988H17.8947C17.3922 25.7988 16.9103 25.5965 16.555 25.2365C16.1996 24.8765 16 24.3882 16 23.879C16 23.3698 16.1996 22.8815 16.555 22.5215C16.9103 22.1614 17.3922 21.9592 17.8947 21.9592H38.1053ZM38.1053 13C38.6078 13 39.0897 13.2023 39.445 13.5623C39.8004 13.9223 40 14.4107 40 14.9198C40 15.429 39.8004 15.9173 39.445 16.2773C39.0897 16.6374 38.6078 16.8396 38.1053 16.8396H17.8947C17.3922 16.8396 16.9103 16.6374 16.555 16.2773C16.1996 15.9173 16 15.429 16 14.9198C16 14.4107 16.1996 13.9223 16.555 13.5623C16.9103 13.2023 17.3922 13 17.8947 13H38.1053Z" fill="black"/>
</svg>
