<svg width="18" height="18" viewBox="0 0 18 18" fill="none" xmlns="http://www.w3.org/2000/svg">
<path fill-rule="evenodd" clip-rule="evenodd" d="M8.00644 1.75747e-08C6.72963 0.000105888 5.47135 0.297391 4.3366 0.867052C3.20184 1.43671 2.2235 2.26223 1.48321 3.27474C0.742925 4.28724 0.26215 5.45736 0.0809993 6.68749C-0.100152 7.91761 0.0235751 9.17206 0.441857 10.3462C0.860138 11.5203 1.56085 12.58 2.48552 13.437C3.41019 14.2939 4.53201 14.9232 5.75739 15.2724C6.98278 15.6216 8.27618 15.6804 9.5297 15.4441C10.7832 15.2078 11.9605 14.6832 12.9633 13.914L16.4036 17.2623C16.5812 17.4293 16.8192 17.5217 17.0662 17.5196C17.3132 17.5176 17.5494 17.4211 17.7241 17.2511C17.8987 17.0812 17.9978 16.8512 18 16.6108C18.0021 16.3704 17.9072 16.1388 17.7356 15.9659L14.2953 12.6176C15.226 11.4684 15.8055 10.0875 15.9675 8.63274C16.1295 7.17801 15.8674 5.70828 15.2112 4.39176C14.555 3.07524 13.5312 1.96512 12.2571 1.18844C10.9829 0.41176 9.50986 -9.82336e-05 8.00644 1.75747e-08ZM1.88335 7.79316C1.88335 6.21261 2.52846 4.69679 3.67676 3.57917C4.82506 2.46156 6.3825 1.83368 8.00644 1.83368C9.63039 1.83368 11.1878 2.46156 12.3361 3.57917C13.4844 4.69679 14.1295 6.21261 14.1295 7.79316C14.1295 9.37371 13.4844 10.8895 12.3361 12.0071C11.1878 13.1248 9.63039 13.7526 8.00644 13.7526C6.3825 13.7526 4.82506 13.1248 3.67676 12.0071C2.52846 10.8895 1.88335 9.37371 1.88335 7.79316Z" fill="#009688"/>
</svg>
